<svg width="71" height="63" viewBox="0 0 71 63" fill="none" xmlns="http://www.w3.org/2000/svg">
<path d="M38.1225 55.7517C38.8557 54.8212 38.6113 54.0525 38.0411 53.1624C37.7967 52.7578 37.9189 52.07 37.9596 51.5036C38.0004 51.0585 38.204 50.6135 38.4076 49.9662C37.6338 50.1685 37.0229 50.3303 36.3305 50.4921C36.249 49.3593 38.2447 49.157 37.2672 47.9028C37.3487 47.8219 37.3894 47.7005 37.4301 47.7005C38.7742 47.8623 39.5481 47.1745 40.0775 46.0012C40.4848 45.0707 40.9736 44.1806 41.2994 43.2096C41.6253 42.1982 41.3402 41.834 40.2812 42.0363C39.1408 42.2791 38.0004 42.6432 36.9007 42.9669C36.4934 43.0882 36.0861 43.331 35.6788 43.331C35.353 43.331 34.8642 43.1287 34.7013 42.8859C34.5791 42.6432 34.742 42.1172 34.9457 41.8745C35.8417 40.9844 36.8192 40.2157 37.6745 39.3256C38.5706 38.3546 39.3444 37.3027 40.1183 36.2103C40.3219 35.9271 40.4034 35.482 40.4034 35.0775C40.3626 34.066 39.7924 33.6614 38.8149 34.066C37.3487 34.7133 35.8824 35.4416 34.4569 36.0889C33.9682 36.3317 33.4387 36.5744 32.9092 36.6958C32.6241 36.7767 32.2575 36.6149 31.9317 36.5744C32.0132 36.2508 32.0539 35.8866 32.2168 35.6439C32.6241 35.1179 33.1536 34.7133 33.5609 34.1874C36.1268 31.153 38.652 27.9568 41.1365 24.7606C41.4623 24.356 41.666 23.83 41.9511 23.385C41.8696 23.3445 41.8289 23.2636 41.7474 23.2231C41.5438 23.3445 41.2994 23.385 41.0958 23.5468C40.0775 24.2346 39.1 24.9629 38.0818 25.6102C37.6338 25.8934 37.0636 26.2575 36.5341 26.298C36.0454 26.3384 35.3937 26.1361 35.1086 25.772C34.9457 25.5697 35.1493 24.801 35.4344 24.4369C37.8782 21.2811 40.2812 18.0849 42.0325 14.4841C42.5213 13.5131 42.9693 12.5421 43.4581 11.5711C43.3766 11.5307 43.2952 11.4497 43.2137 11.4093C42.3176 12.5017 41.3809 13.594 40.4848 14.6864C38.0818 17.7208 35.1086 20.1483 32.2983 22.7781C28.3475 26.5003 24.5597 30.3034 21.1792 34.5515C19.9166 36.1698 20.3646 37.7073 21.0163 39.2851C21.2606 39.8111 21.5865 40.2966 21.9123 40.7821C22.6862 41.9554 22.6454 43.1691 21.9938 44.3424C21.6272 44.9898 21.0977 45.6371 20.5275 46.1631C18.8984 47.5791 16.9434 48.3883 14.7847 48.631C14.2552 48.6715 13.7257 48.5501 13.237 48.5097C13.237 48.3883 13.1963 48.2669 13.1963 48.1455C13.5221 48.0646 13.8479 47.9432 14.2145 47.8623C16.1695 47.4577 17.8394 46.6486 19.0205 44.9493C19.7129 43.9783 19.7537 43.0478 19.102 41.9959C18.206 40.5798 17.3914 39.0828 16.6175 37.6263C15.8437 36.2103 15.9659 34.7943 16.699 33.3782C17.8394 31.2339 19.5093 29.4942 21.3828 27.9972C24.5597 25.4484 27.8995 23.1018 31.0764 20.5529C34.0496 18.2063 37.0229 15.8192 39.7924 13.2299C43.0915 10.1551 45.4131 6.31152 47.4495 2.34659C47.6124 2.06338 47.7346 1.78017 47.8976 1.53742C47.9383 1.4565 48.0605 1.37559 48.3456 1.41605C46.024 7.56573 43.7024 13.675 41.2994 20.1078C42.0325 19.5819 42.5213 19.2178 43.0508 18.8536C43.9061 18.2468 44.7614 17.5994 45.8611 18.1254C46.4313 18.3681 46.5942 20.1483 46.0647 21.2002C45.2502 22.8186 44.3541 24.356 43.4581 25.8934C42.7249 27.1476 41.9918 28.4018 41.2587 29.6156C41.1365 29.8179 40.9736 30.0202 40.9736 30.2629C40.8921 30.8293 40.8921 31.3957 40.8514 31.9217C41.3402 31.8408 41.8696 31.7599 42.3584 31.6385C42.562 31.598 42.7249 31.4767 42.9286 31.4767C43.5803 31.4767 44.3541 31.3553 44.8021 31.679C45.0872 31.8812 45.0465 32.8522 44.8429 33.3782C44.3134 34.7538 43.621 36.0889 43.01 37.4241C42.8064 37.8691 42.6028 38.2737 42.4806 38.7187C42.2362 39.6493 42.6028 40.2561 43.5803 40.6203C45.2502 41.1867 45.6167 41.9554 44.5985 43.3714C43.4988 44.9089 42.2362 46.2845 40.9736 47.66C40.4034 48.2669 39.8332 48.7524 40.1183 49.7639C40.2812 50.2898 39.8739 50.9776 39.8332 51.5845C39.7924 52.0295 39.7517 52.596 39.9961 53.0005C40.6478 54.1334 40.607 54.5784 39.5481 55.3067C39.1815 55.5494 38.7335 55.7113 38.3262 55.9136C38.2447 55.8326 38.1633 55.7922 38.1225 55.7517Z" fill="#090909"/>
<path d="M13.4814 41.3485C13.0741 41.3485 12.5853 41.4699 12.2188 41.3485C7.9422 39.7706 5.41699 36.6149 4.48021 32.3263C3.95073 29.9797 4.96896 27.7949 6.06865 25.7316C7.57563 22.859 9.12334 20.0269 10.4267 17.033C11.8929 13.6345 12.8297 10.1146 12.2188 6.31152C11.8115 4.0863 10.9969 2.10384 9.24553 0.606876C9.12334 0.485501 9.00116 0.323667 8.87897 0.202292C8.9197 0.161834 8.96043 0.0809169 9.00116 0C9.48991 0.161834 9.97866 0.364126 10.4674 0.52596C13.237 1.53742 15.1105 3.47943 16.251 6.19014C17.1877 8.41535 18.1652 10.6406 19.1427 12.8658C19.3464 13.3513 19.6722 13.7963 20.0388 14.4437C20.609 13.675 21.0163 13.0681 21.4643 12.5017C21.6679 12.2184 21.8309 11.8948 22.0752 11.652C22.8084 10.8833 23.6637 11.0452 23.9488 12.0566C24.1932 13.0276 24.2746 14.0391 24.3561 15.0505C24.4783 16.1429 24.5597 17.2758 24.6412 18.3681C24.7634 18.3681 24.8448 18.4086 24.967 18.4086C25.3336 17.9635 25.6594 17.5185 26.0667 17.0735C26.6776 16.4261 27.2478 16.5475 27.5329 17.4376C27.9402 18.7323 27.1664 21.0788 25.9852 22.0094C25.9038 20.9979 26.7591 20.1078 26.1889 18.9345C25.7001 19.3796 25.2928 19.7842 24.8855 20.1483C24.071 20.917 23.7859 20.8361 23.5008 19.7437C23.3378 18.975 23.1749 18.2063 23.0527 17.4376C23.012 17.1948 22.9713 16.9521 22.8898 16.7498C22.6454 16.1025 22.4418 15.2933 21.5865 15.2933C20.8126 15.2933 20.6904 16.062 20.4461 16.6284C20.2424 17.1139 20.1202 17.5994 19.8759 18.0445C19.6315 18.449 19.2649 18.8132 18.9798 19.1773C18.6132 18.8536 18.206 18.5704 17.9616 18.1658C17.595 17.478 17.2692 16.7498 17.0655 16.0215C16.4139 13.7963 15.8844 11.5711 15.2327 9.3459C14.9476 8.3749 14.5811 7.44435 14.2552 6.51381C14.1738 6.51381 14.0923 6.51381 13.9701 6.55427C13.9294 6.67564 13.8479 6.79702 13.8479 6.91839C14.3367 11.0452 13.1555 14.8887 11.6893 18.6513C11.0783 20.2697 10.223 21.7666 9.61209 23.385C8.18657 27.1881 7.65709 31.0721 8.87897 35.0775C9.53064 37.2622 10.9969 38.8806 12.6668 40.3371C12.9519 40.5798 13.1963 40.8226 13.4814 41.1058C13.5628 41.1462 13.5221 41.2271 13.4814 41.3485Z" fill="#090909"/>
<path d="M44.7207 54.4975C43.7024 55.3876 42.8471 56.2372 41.8289 56.9655C39.9961 58.2601 38.1225 59.4739 36.2083 60.6472C34.294 61.8609 32.1353 62.5083 29.936 62.8724C27.1664 63.3174 24.6819 62.5487 22.1974 61.335C17.1063 58.867 12.789 55.4281 8.83824 51.4631C7.98293 50.6135 6.80178 50.0066 5.78355 49.3593C5.21334 48.9952 4.64313 48.6715 4.11365 48.186C5.2948 48.0242 6.31303 48.4692 7.16834 49.0356C8.71605 50.0875 10.2638 51.1799 11.6078 52.4746C15.0291 55.7113 19.1835 57.5724 23.5822 58.9884C26.1889 59.7976 28.877 59.5548 31.5244 59.0693C35.4751 58.3411 38.9779 56.3991 42.6435 54.983C43.173 54.7807 43.6617 54.5784 44.1912 54.3761C44.3134 54.3357 44.3948 54.3761 44.7207 54.4975Z" fill="#090909"/>
<path d="M44.3541 50.8563C44.9243 50.7349 45.5353 50.573 46.1055 50.4517C50.5857 49.683 55.1066 49.4402 59.6276 49.3593C62.3564 49.3188 65.126 49.3188 67.8956 49.3188C68.5473 49.3188 69.2397 49.3997 69.8506 49.602C70.2986 49.7639 70.9503 50.2089 70.991 50.6135C71.0725 50.9776 70.5837 51.6654 70.1764 51.8677C69.2397 52.3937 68.1807 52.9196 67.1217 53.0815C65.2482 53.3242 63.3339 53.4861 61.5011 53.3242C57.4282 52.9601 53.396 52.3128 49.3231 51.8273C48.0197 51.6654 46.7571 51.625 45.4538 51.4631C45.0465 51.4227 44.6799 51.2608 44.3134 51.1799C44.3541 51.0585 44.3541 50.9776 44.3541 50.8563ZM48.3863 50.8967C48.3863 50.9776 48.3863 51.0585 48.3863 51.1395C48.7936 51.2204 49.2009 51.3013 49.6489 51.3418C51.1966 51.4227 52.7851 51.544 54.3328 51.5036C57.8355 51.4227 61.2975 51.2608 64.8002 51.1395C65.2889 51.099 65.8184 50.8967 66.3072 50.7753C66.3072 50.6944 66.2664 50.6135 66.2664 50.4921C60.2792 49.7639 54.3328 50.128 48.3863 50.8967Z" fill="#090909"/>
<path d="M42.8471 49.7234C43.173 49.4807 43.4173 49.157 43.7839 48.9952C47.8976 47.3768 52.0112 45.6371 56.1656 44.1806C58.813 43.2501 61.5826 42.6432 64.3114 41.9149C64.7594 41.7936 65.2482 41.7531 65.6962 41.7531C67.3254 41.6722 68.2214 43.0478 67.3661 44.4234C66.8774 45.1921 66.0221 45.8799 65.2075 46.3249C62.7637 47.66 60.0756 48.2669 57.3467 48.5906C55.3103 48.8333 53.2331 48.9142 51.1559 49.0356C51.1152 48.9547 51.1152 48.8333 51.0744 48.7524C51.4003 48.6715 51.7261 48.5501 52.0519 48.4692C55.4325 47.9028 58.6908 46.9722 61.8677 45.5967C62.1528 45.4753 62.4379 45.273 62.6823 45.1112C62.6823 44.9898 62.6415 44.8684 62.6415 44.747C62.1528 44.7066 61.6233 44.5852 61.1346 44.6257C57.7133 44.8684 54.3735 45.5967 51.1559 46.77C48.7529 47.66 46.472 48.7929 44.1505 49.8043C43.8246 49.9662 43.4581 50.0066 43.0915 50.128C43.0101 50.0066 42.9286 49.8852 42.8471 49.7234Z" fill="#090909"/>
<path d="M47.0422 55.3471C49.2416 55.4685 51.3188 57.0059 53.5996 55.9945C52.0112 54.6998 49.934 55.1853 48.1827 54.4975C48.1827 54.4166 48.1827 54.2952 48.1827 54.2143C48.5085 54.1334 48.7936 54.0525 49.1194 54.0525C51.3595 54.012 53.4775 54.4571 55.4732 55.509C55.7583 55.6303 56.0434 55.8731 56.1656 56.1158C56.3285 56.4395 56.5729 56.925 56.4507 57.1273C56.247 57.4105 55.7583 57.6937 55.3917 57.6533C52.5 57.451 49.6896 57.0464 47.1237 55.6303C47.1237 55.5899 47.1237 55.4685 47.0422 55.3471Z" fill="#090909"/>
<path d="M32.0539 49.8448C34.0089 49.3593 35.3937 50.5326 35.1493 52.2318C35.1086 52.6769 34.8235 53.1219 34.7827 53.567C34.742 54.012 34.7827 54.4975 34.9864 54.9021C35.6381 56.0754 35.5159 56.6418 34.3755 57.3701C34.0496 57.5724 33.7238 57.6533 33.235 57.896C33.398 57.1678 33.6423 56.6418 33.5609 56.1563C33.4794 55.6708 33.0721 55.3067 32.8685 54.8212C32.7463 54.538 32.6648 54.0929 32.8277 53.8097C33.5609 52.3532 33.5609 51.0585 32.0539 49.8448Z" fill="#090909"/>
<path d="M11.5264 45.9203C10.834 46.3249 10.1823 46.8104 9.48991 47.1745C8.87897 47.4982 8.26803 47.2959 7.77928 46.8104C7.33126 46.3654 6.88324 45.9608 6.47594 45.4753C5.90574 44.7875 5.41699 44.0592 4.23584 44.8684C4.23584 44.747 4.23584 44.5852 4.23584 44.4638C4.80605 44.1402 5.37626 43.776 5.98719 43.5737C6.67959 43.2905 6.92397 43.8569 7.2498 44.3424C8.2273 45.8799 9.16407 46.244 10.9154 45.718C11.0376 45.6776 11.2005 45.6776 11.3635 45.6371C11.4449 45.718 11.4856 45.8394 11.5264 45.9203Z" fill="#090909"/>
<path d="M0.977501 46.2035C0.651667 45.6776 0.366563 45.1921 0 44.5447C0.733126 44.5043 1.22188 44.4638 1.79209 44.4234C1.50698 45.0302 1.26261 45.5157 0.977501 46.2035Z" fill="#090909"/>
</svg>
