<svg width="253" height="66" viewBox="0 0 253 66" fill="none" xmlns="http://www.w3.org/2000/svg">
<g clip-path="url(#clip0)">
<path d="M191.016 47.3168C189.097 48.242 187.639 47.6252 186.718 45.6205C186.564 45.3121 186.334 45.0037 186.18 45.0037C185.873 45.0037 183.494 46.3144 183.494 46.4686C183.494 46.6228 183.801 46.6229 184.415 46.3915C185.106 46.0831 185.336 46.1602 185.72 46.7C186.41 47.8565 187.946 49.1672 188.637 49.1672C188.79 49.1672 189.327 48.9359 189.865 48.7046C190.709 48.242 191.937 47.2397 191.937 47.0084C191.86 46.9313 191.477 47.0855 191.016 47.3168Z" fill="black"/>
<path d="M213.199 60.1158C213.199 60.27 213.583 60.1158 214.274 59.8074C215.118 59.4219 215.963 58.4967 215.963 58.0341C215.963 57.8798 215.732 57.4172 215.425 57.1088C215.118 56.8004 214.888 56.4149 214.888 56.4149C214.888 56.3378 215.042 55.9523 215.195 55.4897C215.732 54.1018 215.579 52.9453 214.735 52.0971C214.274 51.6345 213.66 51.4803 212.662 51.4803L211.971 51.4803L212.585 52.02C213.66 52.9453 213.89 54.1789 213.276 55.4126C212.816 56.2607 212.892 56.6462 213.66 57.6485C213.967 58.0341 214.197 58.4196 214.197 58.4967C214.197 58.5738 213.967 58.9593 213.737 59.3448C213.43 59.8074 213.199 60.1158 213.199 60.1158Z" fill="black"/>
<path d="M207.443 17.4779C206.905 17.0153 206.675 17.1695 205.984 18.1718C205.293 19.3284 204.986 19.5597 204.833 19.2513C204.602 18.8657 204.449 17.4008 204.449 15.8587C204.449 14.0083 204.295 12.6975 203.912 12.0807C203.605 11.541 203.298 11.4639 202.684 11.6952C202.3 11.8494 202.069 12.1578 201.379 13.2372C200.918 14.0083 200.457 14.7022 200.381 14.8564C200.15 15.1648 200.15 15.1648 199.92 14.7793C199.46 14.2396 198.001 11.0012 197.464 9.53634C196.85 7.76297 195.468 4.83307 194.701 3.90783C194.394 3.44521 193.703 2.82839 193.242 2.44288C192.321 1.67185 189.327 0.129793 188.56 0.0526901C188.099 -0.0244128 188.099 -0.0244129 189.251 1.13213C190.939 2.82839 191.707 4.44755 192.091 7.06905C192.244 8.37979 192.168 11.0784 191.86 12.5433C191.553 14.1625 190.786 16.7069 190.249 17.9405C189.404 19.791 187.025 24.6484 186.411 25.5737C184.261 29.1204 183.57 32.3587 184.415 34.9802C185.489 38.2956 188.406 41.6111 191.246 42.7676C192.244 43.1531 193.089 43.2302 193.396 42.8447C193.626 42.6134 193.626 42.5363 193.165 42.305C192.935 42.1508 192.244 41.6111 191.63 40.9942C189.711 39.1438 188.56 36.9078 188.176 34.2092C187.946 32.6671 187.946 31.5106 188.176 29.4288C188.483 27.1157 188.944 25.4966 189.788 23.4919C191.784 19.0199 192.551 17.0924 193.242 14.1625C193.933 11.0784 194.163 8.4569 193.703 6.68353C193.549 6.22092 193.549 5.7583 193.549 5.7583C193.779 5.52699 194.777 7.99428 195.315 10.2302C195.545 11.3097 195.852 12.5433 196.005 13.0059C196.927 16.8611 198.308 20.0994 199.076 20.0994C199.306 20.0994 199.843 19.0199 200.227 17.8634C200.457 17.1695 200.765 16.4755 200.841 16.3213C201.532 15.2419 202.76 15.9358 202.991 17.4779C203.144 18.6344 203.758 21.1788 203.912 21.4101C203.988 21.4872 204.142 21.5643 204.219 21.5643C204.372 21.5643 205.831 20.0994 206.061 19.7139C206.138 19.5597 206.291 19.4826 206.368 19.4826C206.828 19.4826 206.445 21.8727 205.754 23.1835C205.6 23.4148 205.677 23.4148 206.061 23.0293C207.136 22.027 207.826 20.2536 207.75 18.5573C207.75 17.8634 207.673 17.6321 207.443 17.4779Z" fill="black"/>
<path d="M228.551 1.82614C225.788 7.22334 222.794 11.5411 219.263 14.9336C216.884 17.2467 209.745 22.8752 206.291 25.1883C204.602 26.3448 203.221 27.4242 201.071 29.4289C197.617 32.6672 196.082 34.9032 195.929 36.8308C195.852 37.6018 195.929 37.9102 196.312 38.8355C196.85 40.2233 197.617 41.6112 198.692 43.1532C199.46 44.3098 199.536 44.3869 199.536 45.1579C199.536 45.7747 199.46 46.0831 199.153 46.5457C198.078 48.242 195.852 49.5527 193.549 49.8612C192.091 50.0154 192.628 50.5551 194.163 50.5551C197.694 50.5551 202.069 47.5481 202.453 44.9266C202.53 44.0784 202.3 42.8448 201.762 42.228C200.841 41.0714 200.304 39.221 200.381 37.9873C200.457 37.5247 200.534 36.985 200.611 36.8308C200.918 36.214 202.683 33.9009 203.758 32.7443C205.677 30.5855 211.971 24.263 214.581 21.8728C215.963 20.5621 217.882 18.7116 218.88 17.7093C220.722 15.7817 223.639 12.0808 224.329 11.0784C225.251 9.45932 224.713 10.9242 223.025 14.2397C221.029 18.249 219.187 21.256 216.807 24.0317C215.349 25.8051 215.118 26.2677 215.272 26.8074C215.656 27.8098 216.961 27.6555 218.649 26.499C221.413 24.5714 222.564 23.8775 222.564 23.9546C222.794 24.7256 216.961 32.4359 213.199 36.4453C212.509 37.1392 211.971 37.8331 211.971 37.9873C211.971 38.6041 212.892 38.6041 213.89 38.1415C214.197 37.9873 214.428 37.9102 214.504 37.9873C214.581 38.0644 214.581 37.9873 214.581 37.9102C214.581 37.756 217.958 36.0598 219.494 35.52C220.108 35.2887 220.185 35.2887 220.492 35.52C221.259 35.9827 221.259 36.8308 220.568 38.1415C220.031 39.221 218.803 40.6088 216.73 42.3822C214.965 43.9242 214.735 44.3098 214.965 44.9266C215.272 45.5434 215.732 45.4663 217.498 44.7724C219.877 43.8471 221.336 43.5387 221.796 43.9242C222.334 44.3098 221.106 47.471 219.801 49.0901L219.263 49.707L218.189 49.6299L217.114 49.5527L217.728 50.0925L218.342 50.6322L217.882 51.0177C216.807 51.8658 216.5 52.2513 216.577 52.4056C216.73 52.6369 217.037 52.5598 217.958 52.1742L218.803 51.7887L218.803 52.3284C218.803 52.6369 218.649 53.1766 218.419 53.5621C217.958 54.4102 218.035 54.7957 218.803 55.7981C219.11 56.1836 219.34 56.5691 219.34 56.6462C219.34 56.7233 219.11 57.1088 218.88 57.4943C218.649 57.8798 218.419 58.2654 218.419 58.2654C218.419 58.4196 218.803 58.2654 219.494 57.957C220.338 57.5714 221.182 56.6462 221.182 56.1836C221.182 56.0294 220.952 55.5668 220.645 55.2584C220.338 54.9499 220.108 54.5644 220.108 54.5644C220.108 54.4873 220.261 54.1018 220.415 53.6392C220.799 52.7911 220.875 51.7887 220.645 51.1719C220.492 50.7864 220.568 50.7093 221.873 49.4756C223.562 47.8565 225.404 45.5434 225.711 44.464C225.941 43.8471 225.941 43.6929 225.711 43.3074C225.481 42.7677 225.02 42.5364 224.253 42.3822C223.946 42.3051 223.639 42.1509 223.408 41.9196C223.101 41.6112 223.101 41.457 223.101 40.8401C223.101 40.1462 223.255 39.8378 224.253 37.756C225.634 35.1345 226.018 33.8238 225.711 33.2841C225.327 32.513 224.329 32.5901 222.487 33.4383C222.027 33.6696 221.566 33.8238 221.413 33.7467C221.182 33.6696 221.182 32.8214 221.413 31.9733C221.489 31.5878 222.027 30.6626 222.487 29.9686C224.022 27.7327 226.172 23.8775 226.555 22.6439C226.939 21.5644 226.939 21.3331 226.939 20.4079C226.863 19.714 226.786 19.3284 226.709 19.2513C226.325 19.02 225.865 18.9429 225.327 19.0971C224.713 19.2513 222.718 20.6392 221.796 21.4873L221.336 21.8728L221.95 20.5621C223.178 17.9406 224.79 13.6999 227.63 5.83548C228.474 3.5224 229.242 1.44062 229.396 1.20932C229.549 0.978009 229.626 0.669597 229.549 0.592494C229.549 0.129878 229.089 0.823803 228.551 1.82614Z" fill="black"/>
<path d="M242.905 47.3939C239.758 48.7817 234.922 50.1696 232.082 50.478C230.547 50.6322 230.854 50.7864 232.927 50.7864C236.611 50.7864 240.602 50.1696 243.75 49.1672C247.05 48.0878 248.816 46.8541 249.046 45.3121C249.123 44.6953 248.585 43.8471 247.971 43.5387C247.511 43.3074 247.357 43.3074 245.592 43.6158C243.289 43.9242 240.909 44.5411 237.609 45.6976C231.775 47.7023 224.176 50.7864 223.562 51.4803C223.255 51.8658 223.332 52.1742 223.792 52.1742C223.946 52.1742 224.483 51.9429 224.944 51.7116C230.931 48.4733 237.455 46.4686 242.291 46.4686C243.903 46.4686 244.21 46.4686 244.21 46.6999C244.133 46.777 243.826 47.0083 242.905 47.3939Z" fill="black"/>
<path d="M179.349 46.3915C179.425 46.4686 179.886 47.0855 180.27 47.7023C180.654 48.3191 181.037 48.7817 181.037 48.7046C181.037 48.6275 180.961 48.242 180.807 47.7794C180.654 47.3168 180.577 46.9313 180.577 46.9313C180.577 46.8542 180.807 46.7771 181.037 46.7771C181.268 46.7 181.575 46.5457 181.651 46.3915L181.882 46.0831L181.191 46.1602C180.807 46.2373 180.193 46.2373 179.809 46.2373C179.272 46.2373 179.195 46.2373 179.349 46.3915Z" fill="black"/>
<path d="M250.121 51.3261C248.278 51.0948 240.142 51.0948 236.15 51.4032C233.234 51.6345 228.398 52.0971 228.014 52.2513C227.937 52.2513 227.246 52.4055 226.632 52.4826C225.404 52.6369 224.56 52.9453 224.713 53.1766C224.79 53.2537 224.944 53.3308 225.174 53.3308C225.404 53.3308 225.558 53.4079 225.634 53.4079C225.711 53.485 226.479 53.5621 227.323 53.6392C229.319 53.7163 231.622 54.0247 235.613 54.6415C238.223 55.027 240.602 55.3355 243.135 55.5668C244.287 55.721 245.745 55.6439 247.204 55.4126C250.197 55.027 252.5 53.7934 252.5 52.6369C252.423 52.02 251.656 51.5574 250.121 51.3261ZM243.289 53.4079C240.295 53.6392 232.159 53.5621 229.856 53.2537C228.474 53.0995 228.014 53.0224 228.321 52.9453C229.012 52.7911 233.31 52.3284 235.767 52.1742C239.758 51.8658 247.971 52.1742 247.971 52.6369C247.971 52.8682 245.976 53.2537 243.289 53.4079Z" fill="black"/>
<path d="M233.848 58.5738C232.773 58.728 232.236 58.6509 229.319 57.8027C228.091 57.4943 227.016 57.1859 226.939 57.263C226.632 57.3401 229.779 58.8051 230.931 59.1135C233.464 59.8074 236.381 60.1158 237.072 59.7303C237.993 59.2677 237.225 57.9569 235.69 57.263C233.387 56.2607 228.551 55.6439 228.551 56.4149C228.551 56.7233 228.858 56.8004 229.779 56.8004C231.391 56.8004 234.155 57.5714 234.615 58.1112C234.922 58.4196 234.846 58.4196 233.848 58.5738Z" fill="black"/>
<path d="M225.251 56.6462L225.865 56.0294L225.174 56.3378C224.79 56.492 223.716 56.9546 222.794 57.3401C221.873 57.7256 220.185 58.4967 219.033 58.9593C214.888 60.7326 212.432 61.5037 209.362 61.735C206.598 61.9663 204.142 61.5808 201.609 60.5784C200.995 60.3471 200.15 59.9616 199.767 59.8074C198.769 59.4219 196.082 58.034 195.008 57.4172C193.856 56.6462 193.703 56.5691 191.477 54.5644C188.56 51.9429 187.332 51.0177 185.413 50.3238C184.108 49.784 183.417 49.7069 183.417 49.9383C183.417 50.2467 184.568 51.0177 185.72 51.4803L187.025 52.02L189.865 54.7957C191.4 56.3378 193.319 58.1111 194.087 58.728C197.08 61.0411 202.914 64.2794 205.447 65.1275C206.521 65.4359 206.752 65.4359 208.517 65.4359C209.592 65.3588 210.897 65.2817 211.357 65.1275C215.502 64.0481 221.72 60.27 225.251 56.6462Z" fill="black"/>
<path d="M2.18875 62.0434L0.653564 62.0434L0.807083 61.5808L4.56828 61.5808L4.41476 62.0434L2.72606 62.0434L1.57467 65.8985L1.11412 65.8985L2.18875 62.0434Z" fill="black"/>
<path d="M9.40402 65.8215C9.17375 65.7444 8.94347 65.5901 8.71319 65.4359C8.55968 65.2817 8.40616 65.0504 8.25264 64.8191C8.17588 64.5878 8.09912 64.3565 8.09912 64.0481C8.09912 63.7397 8.17588 63.3542 8.3294 63.0458C8.48292 62.7373 8.63643 62.4289 8.94347 62.1976C9.17375 61.9663 9.48078 61.735 9.78782 61.5808C10.0949 61.4266 10.4787 61.3495 10.8624 61.3495C11.1695 61.3495 11.4765 61.4266 11.7068 61.5037C11.9371 61.5808 12.1674 61.735 12.3976 61.8892C12.5511 62.0434 12.7047 62.2747 12.8582 62.506C12.9349 62.7373 13.0117 62.9686 13.0117 63.2771C13.0117 63.5855 12.9349 63.971 12.7814 64.2794C12.6279 64.5878 12.4744 64.8962 12.1674 65.1275C11.9371 65.3588 11.63 65.5901 11.323 65.7444C11.016 65.8986 10.6322 65.9757 10.2484 65.9757C9.94134 65.9757 9.71106 65.9757 9.40402 65.8215ZM11.1695 65.3588C11.3998 65.2046 11.63 65.0504 11.8603 64.8962C12.0138 64.6649 12.1674 64.4336 12.3209 64.2023C12.3976 63.971 12.4744 63.6626 12.4744 63.4313C12.4744 63.2 12.4744 63.0458 12.3976 62.8915C12.3209 62.7373 12.2441 62.5831 12.0906 62.4289C11.9371 62.2747 11.7836 62.1976 11.63 62.1205C11.3998 62.0434 11.2462 62.0434 11.016 62.0434C10.7089 62.0434 10.4019 62.1205 10.1716 62.1976C9.94134 62.3518 9.71106 62.506 9.48078 62.6602C9.25051 62.8915 9.17375 63.1229 9.02023 63.3542C8.94347 63.5855 8.86671 63.8939 8.86671 64.1252C8.86671 64.3565 8.86671 64.5107 8.94347 64.6649C9.02023 64.8191 9.09699 64.9733 9.25051 65.1275C9.40403 65.2817 9.55754 65.3588 9.71106 65.4359C9.86458 65.513 10.0949 65.513 10.3251 65.513C10.6322 65.513 10.9392 65.513 11.1695 65.3588Z" fill="black"/>
<path d="M18.5385 65.8985C18.3083 65.8214 18.1547 65.7443 18.0012 65.5901C17.8477 65.4359 17.771 65.2817 17.6942 65.1275C17.6174 64.9733 17.6174 64.742 17.6174 64.5878C17.6174 64.3565 17.6174 64.1252 17.6942 63.8939L18.385 61.5808L18.9223 61.5808L18.2315 64.0481C18.2315 64.1252 18.1547 64.2023 18.1547 64.2794C18.1547 64.3565 18.1547 64.4336 18.1547 64.5107C18.1547 64.6649 18.1547 64.8191 18.2315 64.8962C18.3083 65.0504 18.385 65.1275 18.4618 65.2046C18.5385 65.2817 18.6921 65.3588 18.8456 65.4359C18.9991 65.513 19.1526 65.513 19.3829 65.513C19.6132 65.513 19.7667 65.513 19.9202 65.4359C20.0737 65.3588 20.2272 65.2817 20.3808 65.1275C20.5343 65.0504 20.611 64.8962 20.6878 64.6649C20.7646 64.5107 20.8413 64.2794 20.9181 64.0481L21.6857 61.5808L22.223 61.5808L21.4554 64.1252C21.3019 64.6649 21.0716 65.1275 20.6878 65.4359C20.304 65.8214 19.7667 65.9756 19.2294 65.9756C18.9991 65.9756 18.7688 65.9756 18.5385 65.8985Z" fill="black"/>
<path d="M27.5961 65.8985C27.3658 65.8214 27.1355 65.6672 26.982 65.513C26.8285 65.3588 26.675 65.2046 26.5214 64.9733C26.4447 64.742 26.3679 64.5107 26.3679 64.2023C26.3679 63.8168 26.4447 63.5084 26.5982 63.1999C26.7517 62.8915 26.982 62.5831 27.2123 62.3518C27.4425 62.1205 27.7496 61.8892 28.1334 61.735C28.5172 61.5808 28.8242 61.5037 29.208 61.5037C29.6686 61.5037 30.0524 61.5808 30.2826 61.735C30.5897 61.8892 30.8199 62.1205 30.9735 62.4289L30.5129 62.6602C30.3594 62.4289 30.2059 62.2747 29.9756 62.1205C29.7453 61.9663 29.515 61.8892 29.1312 61.8892C28.8242 61.8892 28.5172 61.9663 28.2869 62.0434C27.9799 62.1976 27.7496 62.3518 27.5961 62.506C27.3658 62.7373 27.2123 62.9686 27.1355 63.1999C26.982 63.4313 26.982 63.7397 26.982 64.0481C26.982 64.2794 26.982 64.4336 27.0588 64.5878C27.1355 64.742 27.2123 64.8962 27.3658 65.0504C27.5193 65.2046 27.6728 65.2817 27.8263 65.2817C27.9799 65.3588 28.2101 65.3588 28.4404 65.3588C28.7475 65.3588 29.0545 65.2817 29.2848 65.2046C29.515 65.1275 29.7453 64.9733 29.8988 64.742L30.2826 65.0504C30.2059 65.1275 30.0524 65.2817 29.8988 65.3588C29.7453 65.4359 29.5918 65.513 29.515 65.5901C29.3615 65.6672 29.208 65.7443 29.0545 65.7443C28.901 65.7443 28.6707 65.8214 28.4404 65.8214C28.0566 65.9756 27.8263 65.9756 27.5961 65.8985Z" fill="black"/>
<path d="M35.886 61.5808L36.4233 61.5808L35.886 63.5084L38.5725 63.5084L39.1098 61.5808L39.6472 61.5808L38.3423 65.8985L37.8049 65.8985L38.419 63.971L35.7324 63.971L35.1184 65.8985L34.5811 65.8985L35.886 61.5808Z" fill="black"/>
<path d="M44.7134 61.5808L45.2507 61.5808L43.9458 65.8985L43.4084 65.8985L44.7134 61.5808Z" fill="black"/>
<path d="M50.3166 61.5808L50.7772 61.5808L52.6962 65.1275L53.7708 61.5808L54.3081 61.5808L53.0032 65.8985L52.6194 65.8985L50.6237 62.2747L49.549 65.8985L49.0117 65.8985L50.3166 61.5808Z" fill="black"/>
<path d="M59.6814 65.8985C59.4511 65.8214 59.2208 65.6672 58.9905 65.513C58.837 65.3588 58.6835 65.1275 58.53 64.8962C58.4532 64.6649 58.3765 64.4336 58.3765 64.1252C58.3765 63.8168 58.4532 63.4313 58.6067 63.1228C58.7603 62.8144 58.9905 62.506 59.2208 62.2747C59.4511 62.0434 59.7581 61.8121 60.1419 61.6579C60.5257 61.5037 60.9095 61.4266 61.2933 61.4266C61.5236 61.4266 61.7539 61.4266 61.9074 61.5037C62.0609 61.5808 62.2912 61.5808 62.3679 61.6579C62.5215 61.735 62.5982 61.8121 62.7517 61.8892C62.8285 61.9663 62.982 62.1205 63.0588 62.1976L62.675 62.506C62.5982 62.4289 62.5215 62.3518 62.4447 62.2747C62.3679 62.1976 62.2912 62.1205 62.1377 62.0434C62.0609 61.9663 61.9074 61.9663 61.7539 61.8892C61.6003 61.8892 61.4468 61.8121 61.2165 61.8121C60.9095 61.8121 60.6025 61.8892 60.2954 61.9663C59.9884 62.1205 59.7581 62.2747 59.5279 62.4289C59.2976 62.6602 59.1441 62.8915 59.0673 63.1228C58.9138 63.3542 58.9138 63.6626 58.9138 63.8939C58.9138 64.1252 58.9138 64.2794 59.0673 64.5107C59.1441 64.6649 59.2208 64.8191 59.3743 64.9733C59.5279 65.1275 59.6814 65.2046 59.8349 65.2817C60.1419 65.513 60.2954 65.513 60.5257 65.513C60.756 65.513 60.9863 65.513 61.2165 65.4359C61.4468 65.3588 61.6003 65.2817 61.7539 65.2046L62.1377 63.971L60.6792 63.971L60.8328 63.5084L62.8285 63.5084L62.2144 65.513C61.9841 65.6672 61.6771 65.7443 61.4468 65.8214C61.1398 65.8985 60.9095 65.9756 60.5257 65.9756C60.2187 65.9756 59.9884 65.9756 59.6814 65.8985Z" fill="black"/>
<path d="M74.3423 65.8215C74.112 65.7444 73.8817 65.5901 73.6514 65.4359C73.4979 65.2817 73.3444 65.0504 73.1909 64.8191C73.1141 64.5878 73.0374 64.3565 73.0374 64.0481C73.0374 63.7397 73.1141 63.3542 73.2676 63.0458C73.4212 62.7373 73.5747 62.4289 73.8817 62.1976C74.112 61.9663 74.419 61.735 74.7261 61.5808C75.0331 61.4266 75.4169 61.3495 75.8007 61.3495C76.1077 61.3495 76.4148 61.4266 76.645 61.5037C76.8753 61.5808 77.1056 61.735 77.3359 61.8892C77.4894 62.0434 77.6429 62.2747 77.7964 62.506C77.8732 62.7373 77.9499 62.9686 77.9499 63.2771C77.9499 63.5855 77.8732 63.971 77.7197 64.2794C77.5661 64.5878 77.4126 64.8962 77.1056 65.1275C76.8753 65.3588 76.5683 65.5901 76.2612 65.7444C75.9542 65.8986 75.5704 65.9757 75.1866 65.9757C74.8796 65.9757 74.5725 65.9757 74.3423 65.8215ZM76.1077 65.3588C76.338 65.2046 76.5683 65.0504 76.7985 64.8962C76.9521 64.6649 77.1056 64.4336 77.2591 64.2023C77.3359 63.971 77.4126 63.6626 77.4126 63.4313C77.4126 63.2 77.4126 63.0458 77.3359 62.8915C77.2591 62.7373 77.1823 62.5831 77.0288 62.4289C76.8753 62.2747 76.7218 62.1976 76.5683 62.1205C76.338 62.0434 76.1845 62.0434 75.9542 62.0434C75.6472 62.0434 75.3401 62.1205 75.1099 62.1976C74.8796 62.3518 74.6493 62.506 74.419 62.6602C74.1887 62.8915 74.112 63.1229 73.9585 63.3542C73.8817 63.5855 73.8049 63.8939 73.8049 64.1252C73.8049 64.3565 73.8049 64.5107 73.8817 64.6649C73.9585 64.8191 74.0352 64.9733 74.1887 65.1275C74.3423 65.2817 74.4958 65.3588 74.6493 65.4359C74.8028 65.513 75.0331 65.513 75.2634 65.513C75.5704 65.513 75.8007 65.513 76.1077 65.3588Z" fill="black"/>
<path d="M83.3232 61.5808L83.7838 61.5808L85.7027 65.1275L86.7774 61.5808L87.3147 61.5808L86.0098 65.8985L85.626 65.8985L83.6302 62.2747L82.5556 65.8985L82.0183 65.8985L83.3232 61.5808Z" fill="black"/>
<path d="M92.3807 61.5808L95.7581 61.5808L95.6046 62.0434L92.7645 62.0434L92.3039 63.5084L94.837 63.5084L94.6835 63.971L92.1504 63.971L91.6899 65.513L94.6067 65.513L94.4532 65.9756L90.999 65.9756L92.3807 61.5808Z" fill="black"/>
<path d="M106.12 61.5808L106.658 61.5808L107.656 63.971L110.112 61.5808L110.726 61.5808L109.421 65.8985L108.884 65.8985L109.882 62.3518L107.502 64.6649L106.428 62.3518L105.43 65.8214L104.892 65.8214L106.12 61.5808Z" fill="black"/>
<path d="M116.022 65.8215C115.792 65.7444 115.562 65.5901 115.332 65.4359C115.178 65.2817 115.025 65.0504 114.871 64.8191C114.794 64.5878 114.718 64.3565 114.718 64.0481C114.718 63.7397 114.794 63.3542 114.948 63.0458C115.101 62.7373 115.255 62.4289 115.562 62.1976C115.792 61.9663 116.099 61.735 116.406 61.5808C116.713 61.4266 117.097 61.3495 117.481 61.3495C117.788 61.3495 118.095 61.4266 118.325 61.5037C118.555 61.5808 118.786 61.735 119.016 61.8892C119.17 62.0434 119.323 62.2747 119.477 62.506C119.553 62.7373 119.63 62.9686 119.63 63.2771C119.63 63.5855 119.553 63.971 119.4 64.2794C119.246 64.5878 119.093 64.8962 118.786 65.1275C118.555 65.3588 118.248 65.5901 117.941 65.7444C117.634 65.8986 117.251 65.9757 116.867 65.9757C116.56 65.9757 116.329 65.9757 116.022 65.8215ZM117.788 65.3588C118.018 65.2046 118.248 65.0504 118.479 64.8962C118.632 64.6649 118.786 64.4336 118.939 64.2023C119.016 63.971 119.093 63.6626 119.093 63.4313C119.093 63.2 119.093 63.0458 119.016 62.8915C118.939 62.7373 118.863 62.5831 118.709 62.4289C118.555 62.2747 118.402 62.1976 118.248 62.1205C118.018 62.0434 117.865 62.0434 117.634 62.0434C117.327 62.0434 117.02 62.1205 116.79 62.1976C116.56 62.3518 116.329 62.506 116.099 62.6602C115.869 62.8915 115.792 63.1229 115.639 63.3542C115.562 63.5855 115.485 63.8939 115.485 64.1252C115.485 64.3565 115.485 64.5107 115.562 64.6649C115.639 64.8191 115.715 64.9733 115.869 65.1275C116.022 65.2817 116.176 65.3588 116.329 65.4359C116.483 65.513 116.713 65.513 116.944 65.513C117.251 65.513 117.558 65.513 117.788 65.3588Z" fill="black"/>
<path d="M125.08 61.5808L126.769 61.5808C127.229 61.5808 127.613 61.6579 127.843 61.8121C128.074 61.9663 128.227 62.1976 128.304 62.506C128.381 62.8144 128.304 63.1228 128.074 63.4313C127.997 63.6626 127.767 63.8168 127.536 63.971C127.306 64.1252 126.999 64.2023 126.615 64.2794L127.613 65.9756L127.076 65.9756L126.155 64.2794L124.85 64.2794L124.389 65.9756L123.852 65.9756L125.08 61.5808ZM126.231 63.8168C126.615 63.8168 126.845 63.7397 127.152 63.6626C127.383 63.5855 127.536 63.4312 127.69 63.277C127.843 63.1228 127.92 62.8915 127.843 62.6602C127.843 62.4289 127.69 62.2747 127.536 62.1976C127.383 62.1205 127.076 62.0434 126.769 62.0434L125.464 62.0434L124.926 63.8168L126.231 63.8168Z" fill="black"/>
<path d="M133.6 61.5808L136.978 61.5808L136.824 62.0434L133.984 62.0434L133.524 63.5084L136.057 63.5084L135.903 63.971L133.37 63.971L132.91 65.513L135.826 65.513L135.673 65.9756L132.219 65.9756L133.6 61.5808Z" fill="black"/>
<path d="M147.34 61.5808L147.877 61.5808L146.726 65.4359L149.413 65.4359L149.259 65.8985L146.035 65.8985L147.34 61.5808Z" fill="black"/>
<path d="M155.17 61.5808L155.707 61.5808L154.402 65.8985L153.941 65.8985L155.17 61.5808Z" fill="black"/>
<path d="M160.773 61.5808L164.15 61.5808L163.997 62.0434L161.08 62.0434L160.619 63.5855L163.229 63.5855L163.076 64.0481L160.543 64.0481L160.005 65.8985L159.468 65.8985L160.773 61.5808Z" fill="black"/>
<path d="M168.909 61.5808L172.287 61.5808L172.133 62.0434L169.293 62.0434L168.833 63.5084L171.366 63.5084L171.212 63.971L168.679 63.971L168.219 65.513L171.136 65.513L170.982 65.9756L167.528 65.9756L168.909 61.5808Z" fill="black"/>
<path d="M5.10554 48.3962C5.10554 47.3939 5.48934 46.4686 6.18017 45.7747C6.871 45.0037 7.79211 44.6953 8.78998 44.6953L10.709 44.6953C13.3188 44.6953 15.6215 43.77 17.4638 41.9196C19.306 40.0691 20.3038 37.756 20.3038 35.1345C20.3038 32.513 19.3827 30.1999 17.4638 28.3495C15.6215 26.499 13.3955 25.4967 10.709 25.4967L4.18444 25.4967L4.18444 44.6953C4.18444 45.6976 3.80064 46.6228 3.10981 47.3168C2.41898 48.0107 1.49787 48.3962 0.5 48.3962L0.5 21.7186L10.8625 21.7186C14.4702 21.7186 17.4638 22.9523 19.9968 25.4196C22.5299 27.8869 23.9115 30.8939 24.1418 34.5177L24.1418 35.0574L24.1418 35.5971C23.9115 39.1439 22.6066 42.1509 20.2271 44.5411C17.6173 47.1626 14.5469 48.4733 10.8625 48.4733L5.10554 48.4733L5.10554 48.3962Z" fill="black"/>
<path d="M36.5768 48.3962C34.1205 48.3962 31.9712 47.5481 30.2058 45.7747C28.4403 44.0014 27.5959 41.8425 27.5959 39.3752C27.5959 36.8308 28.4403 34.749 30.2058 32.9756C31.9712 31.2023 34.1205 30.3542 36.5768 30.3542C39.033 30.3542 41.1823 31.2023 42.9478 32.9756C44.1759 34.2093 45.0203 35.7514 45.404 37.5247C45.5576 38.1415 45.5576 38.7584 45.5576 39.3752C45.5576 39.992 45.4808 40.6088 45.404 41.2256L32.2015 41.2256C32.2015 40.2233 32.5853 39.2981 33.2761 38.6042C33.9669 37.9102 34.8881 37.5247 35.8859 37.5247L41.4126 37.5247C41.1055 36.8308 40.7217 36.214 40.1844 35.6742C39.1866 34.6719 37.9584 34.1322 36.5 34.1322C35.0416 34.1322 33.8134 34.6719 32.8156 35.6742C31.8177 36.6766 31.2804 37.9102 31.2804 39.3752C31.2804 40.8401 31.8177 42.0738 32.8156 43.0761C33.8134 44.0785 35.0416 44.6182 36.5 44.6182L40.0309 44.6182C41.1055 44.6182 42.0266 45.0037 42.7175 45.7747C43.4083 46.4686 43.7153 47.3168 43.7153 48.3191L36.5768 48.3191L36.5768 48.3962Z" fill="black"/>
<path d="M63.7495 46.3915C63.4425 45.8518 63.3657 45.3121 63.3657 44.6953L63.3657 39.3752C63.3657 37.9102 62.8284 36.6766 61.8305 35.6742C60.8327 34.6719 59.6045 34.1322 58.1461 34.1322C56.6877 34.1322 55.4595 34.6719 54.4617 35.6742C53.4638 36.6766 52.9265 37.9102 52.9265 39.3752C52.9265 40.8401 53.4638 42.0738 54.4617 43.1532C55.4595 44.1556 56.6877 44.6953 58.1461 44.6953L59.6813 44.6953C61.2165 44.6953 62.3678 45.4663 63.1354 46.9313C63.3657 47.3939 63.4425 47.8565 63.4425 48.3962L58.1461 48.3962C55.1525 48.3962 52.6962 47.1626 50.854 44.6953C49.7026 43.1532 49.1653 41.3799 49.1653 39.3752C49.1653 36.8308 50.0096 34.749 51.7751 32.9756C53.5406 31.2023 55.6898 30.3542 58.1461 30.3542L58.6067 30.3542C58.9137 30.3542 59.2207 30.4313 59.6045 30.4313C60.0651 30.5084 60.3721 30.5855 60.6024 30.6626C60.9862 30.7397 61.2932 30.8939 61.6003 30.971C62.2143 31.2794 62.8284 31.5878 63.3657 31.9733L63.4425 31.9733C63.8263 32.2817 64.2101 32.5901 64.5171 32.8985C66.2826 34.6719 67.1269 36.7537 67.1269 39.2981L67.1269 48.3191C65.5917 48.3962 64.4403 47.7023 63.7495 46.3915Z" fill="black"/>
<path d="M85.4723 31.5107C85.242 32.0504 84.935 32.5901 84.5512 32.9757C83.8603 33.6696 82.9392 34.0551 81.9414 34.0551L81.0203 34.0551C79.5618 34.0551 78.3337 34.5948 77.3358 35.5971C76.338 36.5995 75.8006 37.8331 75.8006 39.2981L75.8006 44.6182C75.8006 45.235 75.6471 45.7747 75.4168 46.3144C74.6493 47.7023 73.5746 48.3191 72.1162 48.3191L72.1162 30.3542C73.1141 30.3542 74.0352 30.7397 74.726 31.4336C75.0331 31.742 75.2633 31.9733 75.4168 32.3588C77.0288 30.971 78.9478 30.3542 81.097 30.3542L85.7026 30.3542C85.6258 30.7397 85.6258 31.1252 85.4723 31.5107Z" fill="black"/>
<path d="M93.9926 25.4196L83.8604 25.4196C83.8604 24.4172 84.2441 23.492 84.935 22.7981C85.6258 22.1041 86.5469 21.7186 87.5448 21.7186L107.732 21.7186C107.732 22.721 107.349 23.6462 106.658 24.3401C105.967 25.034 105.046 25.4196 104.048 25.4196L97.677 25.4196L97.677 44.6182C97.677 45.6205 97.2932 46.5457 96.6024 47.2397C95.9115 47.9336 94.9904 48.3191 93.9926 48.3191L93.9926 25.4196Z" fill="black"/>
<path d="M109.114 26.9616C109.114 25.9593 109.498 25.034 110.189 24.3401C110.956 23.6462 111.801 23.2607 112.799 23.2607L112.799 24.4943C112.799 25.4967 112.415 26.4219 111.724 27.1158C111.033 27.8097 110.112 28.1953 109.114 28.1953L109.114 26.9616ZM109.114 34.0551C109.114 33.0527 109.498 32.1275 110.189 31.4336C110.956 30.7397 111.801 30.3541 112.799 30.3541L112.799 44.6182C112.799 45.6205 112.415 46.5457 111.724 47.2397C111.033 47.9336 110.112 48.3191 109.114 48.3191L109.114 34.0551Z" fill="black"/>
<path d="M148.184 47.3168C147.494 46.6228 147.11 45.6976 147.11 44.6953L147.11 39.3752C147.11 37.8331 146.573 36.5995 145.575 35.5971C144.577 34.5948 143.272 34.0551 141.737 34.0551L141.66 34.0551C140.278 34.1322 139.127 34.6719 138.129 35.5971C137.208 36.5224 136.671 37.756 136.594 39.1439C136.594 39.221 136.594 42.3051 136.594 48.3191C135.519 48.3191 134.675 47.9336 133.984 47.2397C133.293 46.5457 132.909 45.6205 132.909 44.6182L132.909 39.0668C132.833 37.6018 132.219 36.3682 131.221 35.4429C130.223 34.5177 128.995 34.0551 127.536 34.0551L127.46 34.0551C126.001 34.1322 124.773 34.6719 123.852 35.7514C122.854 36.7537 122.393 38.0644 122.393 39.4523L122.393 44.6182C122.393 45.6205 122.01 46.5457 121.319 47.2397C120.628 47.9336 119.707 48.3191 118.709 48.3191L118.709 30.3542C119.707 30.3542 120.628 30.7397 121.319 31.4336C121.626 31.742 121.856 31.9733 122.01 32.3588C123.622 30.971 125.541 30.3542 127.69 30.3542C130.607 30.3542 132.986 31.5107 134.828 33.9009C136.671 31.5878 139.05 30.3542 141.967 30.3542C144.423 30.3542 146.573 31.2794 148.338 32.9756C150.103 34.6719 150.948 36.8308 150.948 39.3752L150.948 48.3962C149.796 48.3962 148.875 48.0107 148.184 47.3168Z" fill="black"/>
<path d="M163.306 48.3962C160.85 48.3962 158.7 47.5481 156.935 45.7747C155.17 44.0014 154.325 41.8425 154.325 39.3752C154.325 36.8308 155.17 34.749 156.935 32.9756C158.7 31.2023 160.85 30.3542 163.306 30.3542C165.762 30.3542 167.912 31.2023 169.677 32.9756C170.905 34.2093 171.749 35.7514 172.133 37.5247C172.287 38.1415 172.287 38.7584 172.287 39.3752C172.287 39.992 172.21 40.6088 172.133 41.2256L159.008 41.2256C159.008 40.2233 159.391 39.2981 160.082 38.6042C160.773 37.9102 161.694 37.5247 162.692 37.5247L168.219 37.5247C167.912 36.8308 167.528 36.214 166.99 35.6742C165.993 34.6719 164.764 34.1322 163.306 34.1322C161.848 34.1322 160.619 34.6719 159.622 35.6742C158.624 36.6766 158.086 37.9102 158.086 39.3752C158.086 40.8401 158.624 42.0738 159.622 43.0761C160.619 44.0785 161.848 44.6182 163.306 44.6182L166.837 44.6182C167.912 44.6182 168.833 45.0037 169.523 45.7747C170.214 46.4686 170.521 47.3168 170.521 48.3191L163.306 48.3191L163.306 48.3962Z" fill="black"/>
</g>
<defs>
<clipPath id="clip0">
<rect width="253" height="66" fill="white"/>
</clipPath>
</defs>
</svg>
